<?xml version="1.0" encoding="UTF-8"?>
<svg xmlns="http://www.w3.org/2000/svg" style="display:none">
  <symbol id="chevron-left" viewBox="0 0 24 24" fill="currentColor">
    <path d="M15.41 7.41L14 6l-6 6 6 6 1.41-1.41L10.83 12z" />
  </symbol>
  <symbol id="chevron-right" viewBox="0 0 24 24" fill="currentColor">
    <path d="M8.59 16.59L13.17 12 8.59 7.41 10 6l6 6-6 6z" />
  </symbol>
  <symbol id="chevron-down" viewBox="0 0 24 24" fill="currentColor">
    <path d="M7.41 8.59L12 13.17l4.59-4.58L18 10l-6 6-6-6z" />
  </symbol>
  <symbol id="music-note" viewBox="0 0 24 24" fill="currentColor">
    <path d="M12 3v10.55A4 4 0 1 0 14 17V7h4V3h-6z" />
  </symbol>
  <symbol id="music-note-beamed" viewBox="0 0 24 24" fill="currentColor">
    <path d="M9 17a3 3 0 1 0 0-6 3 3 0 0 0 0 6zm10-12v8l-6 2v-8l6-2zM9 11v6" />
  </symbol>
  <symbol id="clock" viewBox="0 0 24 24" fill="currentColor">
    <path d="M12 1a11 11 0 1 0 0 22 11 11 0 0 0 0-22zm1 11.5V6h-2v6l5 3 .8-1.6-4.8-2.9z" />
  </symbol>
  <symbol id="soundwave" viewBox="0 0 24 24" fill="currentColor">
    <path d="M3 12h2v4H3v-4zm4-6h2v10H7V6zm4 4h2v6h-2v-6zm4-8h2v14h-2V2zm4 10h2v4h-2v-4z" />
  </symbol>
  <symbol id="heart" viewBox="0 0 24 24" fill="currentColor">
    <path d="M12 21s-7-4.35-9-7.02C1.5 11.02 3.2 7 6.5 6.5 8.4 6.17 10 7.2 12 9c2-1.8 3.6-2.83 5.5-2.5C20.8 7 22.5 11.02 21 13.98 19 16.65 12 21 12 21z"/>
  </symbol>
  <symbol id="heart-pulse" viewBox="0 0 24 24" fill="currentColor">
    <path d="M3 13h4l2-4 3 8 2-4h4" stroke="currentColor" stroke-width="1.2" fill="none" stroke-linecap="round" stroke-linejoin="round"/>
  </symbol>
  <symbol id="list" viewBox="0 0 24 24" fill="currentColor">
    <path d="M4 6h16v2H4V6zm0 5h16v2H4v-2zm0 5h16v2H4v-2z"/>
  </symbol>
  <symbol id="arrow-up" viewBox="0 0 24 24" fill="currentColor">
    <path d="M4 12l1.41 1.41L11 7.83V20h2V7.83l5.59 5.58L20 12 12 4 4 12z"/>
  </symbol>
  <symbol id="play" viewBox="0 0 24 24" fill="currentColor">
    <path d="M8 5v14l11-7z"/>
  </symbol>
  <symbol id="sunrise" viewBox="0 0 24 24" fill="currentColor">
    <path d="M17 18h4v2H3v-2h4l1-2h8l1 2zM12 3v6" stroke="currentColor" stroke-width="1.2" fill="none" stroke-linecap="round" stroke-linejoin="round"/>
  </symbol>
  <symbol id="sparkles" viewBox="0 0 24 24" fill="currentColor">
    <path d="M12 2l1.5 4L18 8l-4.5 2L12 14l-1.5-4L6 8l4.5-2L12 2z"/>
  </symbol>
  <symbol id="hourglass" viewBox="0 0 24 24" fill="currentColor">
    <path d="M6 2h12v2l-4 4 4 4v2H6v-2l4-4-4-4V2z"/>
  </symbol>
  <symbol id="spotify" viewBox="0 0 24 24" fill="currentColor">
    <path d="M8 5v14l11-7z"/>
  </symbol>
  <symbol id="cloud-sun" viewBox="0 0 24 24" fill="currentColor">
    <path d="M6 19a4 4 0 0 1 0-8 6 6 0 0 1 12 0 4 4 0 0 1-1 7H6z"/>
  </symbol>
  <symbol id="rocket" viewBox="0 0 24 24" fill="currentColor">
    <path d="M12 2c2 2 4 4 6 6s4 4 6 6c-6 0-12 6-12 6S6 10 12 2z"/>
  </symbol>
  <!-- Social placeholders -->
  <symbol id="youtube" viewBox="0 0 24 24" fill="currentColor">
    <path d="M10 15l5-3-5-3v6zM21 7s-.2-1.4-.8-2c-.7-.7-1.5-.7-2-.8C15 4 12 4 12 4s-3 0-6.2.2c-.5 0-1.3.1-2 .8C2.2 5.6 2 7 2 7S2 8.6 2 10.2v3.6C2 16 2.2 17.4 3 18.1c.7.7 1.6.7 2 .8C8.9 19 12 19 12 19s3 0 6.2-.2c.5 0 1.3-.1 2-.8.8-.7 1-2.1 1-2.1s.2-1.4.2-3.2V10.2C21 8.6 21 7 21 7z"/>
  </symbol>
  <symbol id="instagram" viewBox="0 0 24 24" fill="currentColor">
    <path d="M7 2h10a5 5 0 0 1 5 5v10a5 5 0 0 1-5 5H7a5 5 0 0 1-5-5V7a5 5 0 0 1 5-5zm5 6.5A4.5 4.5 0 1 0 16.5 13 4.5 4.5 0 0 0 12 8.5zM17.8 6.2a1.2 1.2 0 1 0 1.2 1.2 1.2 1.2 0 0 0-1.2-1.2z"/>
  </symbol>
  <symbol id="twitter" viewBox="0 0 24 24" fill="currentColor">
    <path d="M22 5.9c-.6.3-1.2.6-1.9.7.7-.5 1.2-1.2 1.4-2-.7.4-1.4.8-2.2 1-1.2-1.2-3.2-1.3-4.5-.2-1 .9-1.3 2.4-.7 3.6-2.4-.1-4.5-1.3-6-3-.9 1.5-.3 3.4 1.1 4.3-.5 0-1-.2-1.4-.4 0 1.5 1 2.8 2.5 3.1-.5.1-1 .2-1.5.1.4 1.3 1.5 2.3 2.9 2.3C6.2 19 8 19.8 10 20c4.6.4 8.8-3.1 9.2-7.6.2-.7.3-1.4.3-2.1 0-.2 0-.4 0-.6.7-.4 1.2-1 1.6-1.7-.6.3-1.3.5-2 .6z"/>
  </symbol>
</svg>
